<?xml version="1.0" encoding="utf-8"?>
<svg version="1.1"
     xmlns="http://www.w3.org/2000/svg"
     xmlns:xlink="http://www.w3.org/1999/xlink"
     viewBox="190 107 67 270"
     width="67"
     height="270"
     xml:space="preserve">
  <g>
    <path style="fill:#F1AC30;" d="M223.594,201.37c-17.471,2.305-34.964-14.157-31.318-38.611
      c3.647-24.454,26.598-33.677,32.819-39.898c6.221-6.221,3.861-16.088,3.861-16.088s17.31,16.164,21.879,36.466
      C257.414,172.461,254.483,197.294,223.594,201.37z"/>
    <path style="fill:#D78135;" d="M224.186,198.701c-13.722,2.646-25.102-13.769-21.764-32.051
      c3.499-19.171,30.434-22.184,32.349-35.477C248.485,147.124,257.429,192.291,224.186,198.701z"/>
    <g>
      <g>
        <polygon style="fill:#D0AC7F;" points="229.582,374.029 224.358,377.265 219.302,374.029 219.302,190.648 229.582,190.648"/>
        <polygon style="fill:#A57E50;" points="219.302,190.648 219.302,374.029 224.324,377.242 224.324,190.648"/>
      </g>
      <path style="fill:#222221;" d="M238.655,174.563c0-12.947-6.363-23.442-14.213-23.442s-14.213,10.495-14.213,23.442
        c0,9.548,3.463,17.757,8.429,21.412c0.599,1.214,0.611,13.914,0.653,15.359c0.048,1.697,1.649-4.074,1.94,0.194
        c0.291,4.267,1.649,9.699,3.152,3.686c1.503-6.013,3.104-6.547,3.928-5.189c0.824,1.358,1.212,1.406,1.455-0.63
        c0.187-1.572,0.892-13.51,1.205-14.027C235.544,191.46,238.655,183.613,238.655,174.563z"/>
      <path style="fill:#4D4E4F;" d="M234.72,169.706c-1.627,0.762-4.602-2.159-6.646-6.523c-2.044-4.364-2.382-8.52-0.755-9.282
        c1.627-0.762,4.602,2.159,6.646,6.523C236.009,164.788,236.347,168.944,234.72,169.706z"/>
    </g>
    <path style="fill:#F7D83D;" d="M230.838,112.372c0,0,2.654,6.85-6.593,13.701c-9.248,6.85-23.548,15.756-26.631,26.288
      c5.395-8.648,19.866-16.954,29.628-24.49C237.003,120.335,232.464,114.513,230.838,112.372z"/>
    <path style="fill:#F7D83D;" d="M195.412,157.026c0,0-5.693,11.267,0.474,24.195C195.175,175.172,193.21,161.692,195.412,157.026
      z"/>
    <path style="fill:#F7D83D;" d="M250.325,148.605c-1.66-12.335-8.895-22.89-8.895-22.89
      C243.446,132.001,250.325,148.605,250.325,148.605z"/>
  </g>
</svg>
