<?xml version="1.0" encoding="utf-8"?>
<svg version="1.1"
     xmlns="http://www.w3.org/2000/svg"
     xmlns:xlink="http://www.w3.org/1999/xlink"
     viewBox="388 151 33 229"
     width="33"
     height="229"
     xml:space="preserve">
  <g>
    <g>
      <g>
        <polygon style="fill:#D0AC7F;" points="408.677,374.029 403.454,377.265 398.398,374.029 398.398,190.648 408.677,190.648"/>
        <polygon style="fill:#A57E50;" points="398.398,190.648 398.398,374.029 403.419,377.242 403.419,190.648"/>
      </g>
      <path style="fill:#B43238;" d="M417.751,174.563c0-12.947-6.363-23.442-14.213-23.442c-7.85,0-14.213,10.495-14.213,23.442
        c0,9.548,3.463,17.757,8.429,21.412c0.599,1.214,0.611,3.284,0.653,4.729c0.048,1.697,1.649-4.074,1.94,0.194
        c0.291,4.267,1.649,9.699,3.152,3.686c1.503-6.013,3.104-6.547,3.928-5.189c0.824,1.358,1.212,1.406,1.455-0.63
        c0.187-1.572,0.892-2.88,1.205-3.397C414.639,191.46,417.751,183.613,417.751,174.563z"/>
      <path style="fill:#8F3233;" d="M397.435,153.387c-4.796,3.766-8.111,11.831-8.111,21.175c0,9.548,3.463,17.757,8.429,21.412
        c0.599,1.214,0.611,3.284,0.653,4.729c0.048,1.697,1.649-4.074,1.94,0.194c0.291,4.267,1.649,9.699,3.152,3.686
        c1.503-6.013,3.104-6.547,3.928-5.189c0.824,1.358,1.212,1.406,1.455-0.63c0.187-1.572,0.892-2.88,1.205-3.397
        c1.949-1.673,3.631-4.071,4.921-6.973C400.625,191.751,390.487,173.661,397.435,153.387z"/>
      <path style="fill:#D63238;" d="M413.816,169.706c-1.627,0.762-4.602-2.159-6.646-6.523c-2.044-4.364-2.381-8.52-0.755-9.282
        c1.627-0.762,4.602,2.159,6.646,6.523C415.105,164.788,415.443,168.944,413.816,169.706z"/>
    </g>
  </g>
</svg>
